<?xml version="1.0" encoding="utf-8"?>
<!-- Generator: Adobe Illustrator 24.1.0, SVG Export Plug-In . SVG Version: 6.00 Build 0)  -->
<svg version="1.1" id="Layer_1" xmlns="http://www.w3.org/2000/svg" xmlns:xlink="http://www.w3.org/1999/xlink" x="0px" y="0px"
	 viewBox="0 0 1366 1366" style="enable-background:new 0 0 1366 1366;" xml:space="preserve">
<style type="text/css">
	.st0{fill:#EA1818;}
</style>
<g>
	<path class="st0" d="M799.89,1306.92c-64.45,64.19-169.71,64.1-234.05-0.25L59.33,800.16c-64.44-64.43-64.44-169.89,0-234.32
		L565.84,59.33c53.82-53.82,136.26-62.7,199.51-26.59c-4.37,1.1-8.73,2.26-13.06,3.44c-29.93,8.22-59,18.51-87.05,30.69
		c-9.72,4.22-19.32,8.67-28.79,13.36c-20.02,9.87-39.46,20.72-58.26,32.53c-26.21,16.43-51.16,34.67-74.69,54.53
		c-4.17,3.52-8.28,7.07-12.36,10.69c-26.42,23.44-50.94,48.98-73.29,76.36c-4.7,5.74-9.28,11.55-13.77,17.44
		c-16.88,22.14-32.37,45.39-46.36,69.62c-15.46,26.75-29.09,54.7-40.7,83.66v3.39h-1.35c-11.09,28.12-20.29,57.19-27.45,87.05
		c-6.81,28.35-11.76,57.41-14.76,87.05c-2.2,21.92-3.34,44.16-3.34,66.66c0,6.82,0.1,13.63,0.31,20.39
		c0.9,29.56,3.76,58.62,8.45,87.05c4.89,29.74,11.79,58.81,20.53,87.05c5.23,16.85,11.1,33.41,17.61,49.66
		c5.09,12.67,10.54,25.13,16.38,37.4c14.44,30.37,31.15,59.47,49.91,87.05c6.67,9.8,13.59,19.42,20.76,28.83
		c15.52,20.38,32.21,39.82,49.98,58.22c11.88,12.34,24.25,24.2,37.08,35.57c20.88,18.52,42.94,35.73,66.06,51.48
		c6.91,4.72,13.91,9.29,20.99,13.74c4.95,3.1,9.93,6.14,14.95,9.1c21.59,14.39,44.55,26.98,68.67,37.55
		c1.64,0.73,3.29,1.44,4.92,2.12c13.14,5.58,26.63,10.55,40.42,14.9c0.03,0.01,0.05,0.01,0.09,0.03c5.58,1.58,11.2,3.06,16.86,4.46
		c7.34,1.81,14.75,3.47,22.22,4.98c0.31,0.06,0.6,0.13,0.9,0.18c13.92,2.82,28.07,5.1,42.4,6.82
		C793.05,1306.21,796.46,1306.58,799.89,1306.92z"/>
</g>
<g>
	<path class="st0" d="M1249.66,818.56c2.61,10.54,4.8,21.23,6.55,32.06l-453.9,453.9c-18.93-3.05-37.33-7.39-55.14-12.95
		c-10.64-3.31-21.07-7.06-31.26-11.22c-18.07-7.35-35.42-15.98-51.96-25.78c-29.49-17.45-56.39-38.56-80.13-62.64
		c-5.47-5.54-10.77-11.24-15.89-17.08c-23.53-26.82-43.41-56.77-59-89.02c-0.99-2.03-1.95-4.08-2.91-6.13
		c-13.34-28.83-23.29-59.43-29.38-91.22c-5.51-28.68-7.88-58.31-6.78-88.49c0.38-11.11,1.26-22.29,2.61-33.53
		c2.17-18,5.52-35.57,9.95-52.64c7.66-29.53,18.58-57.57,32.34-83.79c12.77-24.34,27.96-47.11,45.22-68.01
		c3.62-4.37,7.32-8.67,11.11-12.89c25.36-28.14,54.63-52.52,86.84-72.37c2.2-1.38,4.44-2.71,6.68-4.04
		c26.91-15.87,55.77-28.61,86.05-37.79c28.77-8.74,58.81-14.25,89.63-16.17c23.76-1.49,47.97-0.84,72.46,2.12
		c4.95,0.59,9.85,1.27,14.72,2.05c29.65,4.68,58.04,12.58,84.87,23.3c29.46,11.74,57.01,26.87,82.29,44.85
		c16.65,11.84,32.31,24.93,46.84,39.1c11.33,11.04,21.99,22.75,31.9,35.04c15.45,19.14,29.11,39.7,40.79,61.4
		c12.59,23.44,22.89,48.2,30.59,73.99C1246.52,806.53,1248.17,812.52,1249.66,818.56z"/>
</g>
<g>
	<path class="st0" d="M1306.67,800.16l-12.76,12.76c-2.64-26.84-7.67-53.07-14.9-78.5c-5.35-18.89-11.93-37.34-19.64-55.23
		c-5.43-12.62-11.43-24.96-17.96-36.98c-15.61-28.74-34.26-55.69-55.6-80.35c-4.63-5.37-9.38-10.62-14.26-15.75
		c-19.67-20.72-41.33-39.63-64.72-56.37c-25.43-18.23-52.88-33.92-82.07-46.64c-2.57-1.13-5.16-2.23-7.75-3.29
		c-24.45-10.15-50.06-18.23-76.64-23.99c-13.97-3.06-28.18-5.47-42.66-7.21c-14.68-1.76-29.29-2.8-43.78-3.15
		c-26.98-0.66-53.54,1.11-79.51,5.11c-3,0.46-5.99,0.96-8.97,1.48c-31.38,5.48-61.78,14.24-90.8,25.96
		c-26.46,10.67-51.77,23.78-75.59,39.12c-6.21,3.99-12.3,8.12-18.3,12.41c-26.31,18.77-50.6,40.34-72.38,64.34
		c-9.48,10.44-18.49,21.35-26.98,32.67c-11.46,15.23-21.96,31.27-31.44,47.97c-14.85,26.14-27.2,53.98-36.68,83.27
		c-8.87,27.3-15.23,55.84-18.84,85.41l-0.05,0.51c-3.54,29.38-4.18,58.45-2.14,86.91c2.19,30.68,7.49,60.66,15.64,89.56
		c5.29,18.86,11.8,37.28,19.45,55.14c5.39,12.63,11.34,24.99,17.87,37.04c15.58,28.89,34.23,55.99,55.61,80.79
		c4.46,5.19,9.05,10.27,13.75,15.24c3.71,3.94,7.49,7.81,11.34,11.62c-12.08-10.69-23.69-21.92-34.77-33.67
		c-6.61-6.98-13.03-14.16-19.26-21.49c-22.8-26.88-43.02-56.03-60.25-87.05c-2.59-4.64-5.11-9.33-7.55-14.06
		c-12.11-23.39-22.55-47.77-31.16-72.99c-9.6-28.04-16.94-57.14-21.81-87.05c-4.63-28.33-7.04-57.42-7.06-87.05v-0.38
		c0-29.51,2.37-58.45,6.93-86.67c4.83-29.91,12.12-59,21.67-87.05c8.67-25.5,19.19-50.14,31.43-73.76c2.31-4.47,4.68-8.9,7.12-13.29
		c17.16-31.02,37.31-60.16,60.02-87.05c6.44-7.6,13.06-15.03,19.91-22.25c22.41-23.73,46.95-45.44,73.33-64.8
		c4.52-3.33,9.1-6.58,13.73-9.75c27.3-18.77,56.42-35.09,87.05-48.64c26.4-11.69,53.91-21.31,82.34-28.66
		c1.57-0.42,3.14-0.82,4.72-1.2c28.21-7.05,57.29-11.85,87.05-14.24c14.47-1.17,67.99-0.71,99.85,6.92
		c26.77,6.41,49.94,14.28,69.68,22.22l297.8,297.8C1371.11,630.27,1371.11,735.73,1306.67,800.16z"/>
</g>
</svg>
